<svg xmlns="http://www.w3.org/2000/svg" viewBox="0 0 512 512">
  <path d="M512 50c0-16.542-13.458-30-30-30H30C13.458 20 0 33.458 0 50v219c0 .049.007.096.007.145-.001.097-.007.193-.007.29v70.456c0 20.641 3.131 41.091 9.307 60.783l11.32 36.098V482c0 5.522 4.478 10 10 10s10-4.478 10-10v-46.76c0-1.015-.154-2.023-.458-2.992l-11.778-37.559C22.823 376.936 20 358.499 20 339.891v-70.456c0-5.557 4.521-10.077 10.077-10.077s10.077 4.521 10.077 10.077v24.506c0 5.522 4.478 10 10 10s10-4.478 10-10V254.64c0-5.557 4.521-10.077 10.078-10.077s10.077 4.521 10.077 10.077v39.301c0 5.522 4.478 10 10 10s10-4.478 10-10v-52.018c0-5.557 4.521-10.077 10.077-10.077s10.077 4.521 10.077 10.077v52.018c0 5.522 4.478 10 10 10s10-4.478 10-10V176.262c0-5.557 4.521-10.077 10.077-10.077s10.078 4.521 10.078 10.077v145.385c0 4.579 3.11 8.573 7.55 9.695 4.436 1.12 9.073-.914 11.249-4.943l23.578-43.662c2.896-5.36 9.422-7.411 14.861-4.667 4.654 2.349 7.052 7.527 5.829 12.595L208.4 354.026c-3.003 12.446-8.355 23.998-15.91 34.335l-29.945 40.979c-1.251 1.713-1.926 3.779-1.926 5.9V482c0 5.522 4.478 10 10 10s10-4.478 10-10v-43.495l28.019-38.343c9.119-12.478 15.581-26.422 19.204-41.445L236.7 322h38.6l8.857 36.716c3.624 15.024 10.086 28.969 19.204 41.446l28.02 38.343V482c0 5.522 4.478 10 10 10s10-4.478 10-10v-46.76c0-2.121-.675-4.188-1.926-5.9l-29.946-40.979c-7.554-10.337-12.906-21.889-15.909-34.336l-15.286-63.361c-1.223-5.067 1.175-10.246 5.828-12.594 5.437-2.743 11.967-.693 14.862 4.666l23.578 43.662c2.176 4.03 6.82 6.063 11.249 4.943 4.439-1.122 7.55-5.116 7.55-9.695V176.262c0-5.557 4.521-10.077 10.078-10.077s10.077 4.521 10.077 10.077V293.94c0 5.522 4.478 10 10 10s10-4.478 10-10v-52.018c0-5.557 4.521-10.077 10.077-10.077s10.077 4.521 10.077 10.077v52.018c0 5.522 4.478 10 10 10s10-4.478 10-10v-39.3c0-5.557 4.521-10.077 10.077-10.077s10.078 4.521 10.078 10.077v39.301c0 5.522 4.478 10 10 10s10-4.478 10-10v-24.506c0-5.557 4.521-10.077 10.077-10.077S492 263.878 492 269.435v70.456c0 18.608-2.823 37.045-8.391 54.799l-11.778 37.559c-.304.969-.458 1.978-.458 2.992V482c0 5.522 4.478 10 10 10s10-4.478 10-10v-45.229l11.32-36.098C508.869 380.981 512 360.53 512 339.89v-70.456c0-.097-.006-.193-.007-.289 0-.049.007-.096.007-.145V50zM268.872 295.355l1.603 6.645h-28.95l1.603-6.645c2.858-11.843-1.373-23.903-10.454-31.358h46.652c-9.08 7.455-13.312 19.515-10.454 31.358zm223.127-54.256c-3.151-1.124-6.542-1.742-10.076-1.742-4.563 0-8.892 1.021-12.77 2.847-4.74-10.397-15.232-17.642-27.386-17.642-4.891 0-9.51 1.173-13.596 3.252-5.063-9.492-15.069-15.969-26.559-15.969-3.533 0-6.926.612-10.077 1.736v-37.32c0-16.585-13.492-30.077-30.077-30.077s-30.078 13.492-30.078 30.077v105.821l-4.779-8.851c-4.544-8.413-12.296-13.904-20.911-15.734.409-1.091.643-2.267.643-3.501 0-5.522-4.478-10-10-10H227c-5.522 0-10 4.478-10 10 0 1.124.194 2.201.536 3.209-12.703-1.992-25.67 4.051-32.138 16.026l-4.779 8.851v-105.82c0-16.585-13.493-30.077-30.078-30.077s-30.077 13.492-30.077 30.077v37.32c-3.151-1.124-6.544-1.736-10.077-1.736-11.489 0-21.495 6.477-26.559 15.969-4.086-2.079-8.705-3.252-13.596-3.252-12.153 0-22.646 7.244-27.386 17.642-3.878-1.826-8.206-2.847-12.77-2.847-3.534 0-6.925.617-10.077 1.742V50c0-5.514 4.486-10 10-10h452c5.514 0 10 4.486 10 10v191.099z"/>
  <path d="M107 132.003H64c-5.522 0-10 4.478-10 10s4.478 10 10 10h43c5.522 0 10-4.478 10-10s-4.478-10-10-10zM207.261 132.003h-15.839c-5.522 0-10 4.478-10 10s4.478 10 10 10h15.839c5.522 0 10-4.478 10-10s-4.478-10-10-10zM81.275 188H64c-5.522 0-10 4.478-10 10s4.478 10 10 10h17.275c5.522 0 10-4.478 10-10s-4.478-10-10-10zM233.973 188h-18.615c-5.522 0-10 4.478-10 10s4.478 10 10 10h18.615c5.522 0 10-4.478 10-10s-4.478-10-10-10zM98.552 76.005H64c-5.522 0-10 4.478-10 10s4.478 10 10 10h34.552c5.522 0 10-4.478 10-10s-4.478-10-10-10zM207.261 76.005h-31.679c-5.522 0-10 4.478-10 10s4.478 10 10 10h31.679c5.522 0 10-4.478 10-10s-4.478-10-10-10zM144.66 78.93c-1.86-1.86-4.431-2.92-7.07-2.92-2.63 0-5.21 1.06-7.07 2.92-1.859 1.86-2.93 4.44-2.93 7.07 0 2.64 1.07 5.21 2.93 7.08 1.86 1.859 4.44 2.92 7.07 2.92s5.21-1.061 7.07-2.92c1.859-1.87 2.93-4.44 2.93-7.08 0-2.63-1.07-5.21-2.93-7.07zM269.999 132.003H243.5c-5.522 0-10 4.477-10 10 0 5.522 4.478 10 10 10h26.499c5.522 0 10-4.478 10-10s-4.478-10-10-10zM324.569 134.93c-1.859-1.86-4.439-2.93-7.069-2.93s-5.21 1.069-7.07 2.93c-1.86 1.861-2.93 4.44-2.93 7.07 0 2.64 1.069 5.21 2.93 7.069 1.86 1.87 4.44 2.931 7.07 2.931s5.21-1.061 7.069-2.931c1.86-1.859 2.931-4.439 2.931-7.069s-1.07-5.21-2.931-7.07zM448.345 132.003h-37.634c-5.523 0-10 4.477-10 10 0 5.522 4.478 10 10 10h37.634c5.522 0 10-4.478 10-10s-4.478-10-10-10zM305 188h-20.167c-5.522 0-10 4.478-10 10s4.478 10 10 10H305c5.522 0 10-4.478 10-10s-4.478-10-10-10zM446.394 188h-18.615c-5.522 0-10 4.478-10 10s4.478 10 10 10h18.615c5.522 0 10-4.478 10-10s-4.478-10-10-10zM282.499 76.005H256c-5.522 0-10 4.478-10 10s4.478 10 10 10h26.499c5.522 0 10-4.478 10-10s-4.478-10-10-10zM448.127 76.005h-33.103c-5.522 0-10 4.478-10 10s4.478 10 10 10h33.103c5.522 0 10-4.478 10-10s-4.478-10-10-10zM363.5 76.005h-21.908c-5.522 0-10 4.478-10 10s4.478 10 10 10H363.5c5.522 0 10-4.478 10-10s-4.478-10-10-10z"/>
</svg>
