<svg xmlns="http://www.w3.org/2000/svg" xmlns:xlink="http://www.w3.org/1999/xlink" id="keyboard" version="1.1" x="0px" y="0px" viewBox="0 0 683.3 254" style="enable-background:new 0 0 683.3 254;" xml:space="preserve" class="">
<style type="text/css">
	.st0{fill:none;stroke:#666666;stroke-width:0.5;stroke-miterlimit:10;}
	.st1{
        opacity: 0;
        font-family:'ArialMT', 'Arial', 'Helvetica', 'sans-serif';
        font-size:15px;
    }
    .st2{
        opacity: 1;
        fill:#666666;
    }

	.b{font-size:26px;}
	.b2{font-size:24px;}
	.s{font-size:12px;}

	path.active{ fill: #9CBFD3; }
	path.deadkey{fill: orange;}
    text {user-select: none; opacity: 0;}
	text.active{fill:#FFFFFF;}
	path.correct{stroke:#C2EA9A;stroke-width:4;}
	text.correct{}
	path.incorrect{fill:#E97E7E;}
	text.incorrect{fill:white;}
	
	.theme-bone .st0 {fill: #fff; stroke-width: 1; stroke: #d1d1d1;}
	.theme-bone	.st0.active { fill: #0383F2; }
	.theme-bone .st1 {font-size:14px;}
	.theme-bone .s {font-size:11px;}
	.theme-bone .b {font-size: 24px;}
	
	.theme-bone .st2 {opacity: 0;}
	.theme-bone .st0.incorrect {transition: none; fill:#F5687C;}
	.theme-bone .b.incorrect {opacity: 1; transition: none;}
	.theme-bone .hide-on-bone {opacity: 0;}
	.theme-bone .b.focus-row {opacity: 1;}
	.theme-bone .st0, .theme-bone text {
		transition: fill .5s, opacity 1.2s;
		transition-delay: .25s;
	}
	
	.is-blind .st2 {fill: #d7ff12;}
	.is-blind .st0 {fill: #272822; stroke: #858585;}
	.is-blind .b {font-size:30px;}
	.is-blind .b2 {font-size:28px;}
	.is-blind path.active{ fill: rgb(121, 187, 255); }
	.is-blind path.deadkey{fill: orange;}
	.is-blind path.incorrect{fill:#E97E7E;}
</style>
<g id="keys">
	<path id="tilda" class="st0" d="M58.4,53.7c0,1.7-1.4,3-3,3H18.9c-1.6,0-3-1.3-3-3V18.3c0-1.7,1.3-3,3-3h36.5c1.6,0,3,1.3,3,3V53.7z"/>
	<path id="key-1" class="st0" d="M103.4,53.7c0,1.7-1.3,3-3,3H63.9c-1.7,0-3-1.3-3-3V18.3c0-1.6,1.3-3,3-3h36.5c1.7,0,3,1.4,3,3V53.7z"/>
	<path id="q" class="st0" d="M126.7,97.6c0,1.6-1.3,3-3,3H87.2c-1.7,0-3-1.4-3-3V62.3c0-1.6,1.3-3,3-3h36.5c1.7,0,3,1.4,3,3V97.6z"/>
	<path id="a" class="st0" d="M137.4,141.5c0,1.6-1.4,3-3,3H97.9c-1.7,0-3-1.4-3-3v-35.4c0-1.7,1.3-3,3-3h36.5c1.6,0,3,1.3,3,3V141.5z"/>
	<path id="z" class="st0" d="M160.8,185.4c0,1.7-1.4,3-3,3h-36.5c-1.7,0-3-1.3-3-3v-35.3c0-1.7,1.3-3,3-3h36.5c1.6,0,3,1.3,3,3V185.4z"/>
	<path id="x" class="st0" d="M205.8,185.4c0,1.7-1.4,3-3,3h-36.5c-1.7,0-3-1.3-3-3v-35.3c0-1.6,1.3-3,3-3h36.5c1.6,0,3,1.4,3,3V185.4z"/>
	<path id="c" class="st0" d="M250.8,185.4c0,1.7-1.4,3-3,3h-36.5c-1.7,0-3-1.3-3-3v-35.3c0-1.6,1.3-3,3-3h36.5c1.6,0,3,1.4,3,3V185.4z"/>
	<path id="v" class="st0" d="M295.8,185.4c0,1.7-1.4,3-3,3h-36.5c-1.7,0-3-1.3-3-3v-35.3c0-1.6,1.3-3,3-3h36.5c1.6,0,3,1.4,3,3V185.4z"/>
	<path id="b" class="st0" d="M340.8,185.4c0,1.7-1.4,3-3,3h-36.6c-1.6,0-3-1.3-3-3v-35.3c0-1.6,1.4-3,3-3h36.6c1.6,0,3,1.4,3,3V185.4z"/>
	<path id="n" class="st0" d="M385.8,185.4c0,1.7-1.4,3-3,3h-36.5c-1.6,0-3-1.3-3-3v-35.3c0-1.6,1.4-3,3-3h36.5c1.6,0,3,1.4,3,3V185.4z"/>
	<path id="m" class="st0" d="M430.8,185.4c0,1.7-1.4,3-3,3h-36.5c-1.6,0-3-1.3-3-3v-35.3c0-1.6,1.4-3,3-3h36.5c1.6,0,3,1.4,3,3V185.4z"/>
	<path id="comma" class="st0" d="M475.8,185.4c0,1.7-1.4,3-3,3h-36.5c-1.6,0-3-1.3-3-3v-35.3c0-1.6,1.4-3,3-3h36.5c1.6,0,3,1.4,3,3V185.4z"/>
	<path id="dot" class="st0" d="M520.8,185.4c0,1.7-1.3,3-3,3h-36.5c-1.6,0-3-1.3-3-3v-35.3c0-1.6,1.4-3,3-3h36.5c1.7,0,3,1.4,3,3V185.4z"/>
	<path id="slash" class="st0" d="M565.8,185.4c0,1.7-1.3,3-3,3h-36.5c-1.6,0-3-1.3-3-3v-35.3c0-1.6,1.4-3,3-3h36.5c1.7,0,3,1.4,3,3V185.4z"/>
	<path id="s" class="st0" d="M182.4,141.5c0,1.6-1.4,3-3,3h-36.5c-1.6,0-3-1.4-3-3v-35.4c0-1.7,1.4-3,3-3h36.5c1.6,0,3,1.3,3,3V141.5z"/>
	<path id="d" class="st0" d="M227.4,141.5c0,1.6-1.4,3-3,3h-36.5c-1.6,0-3-1.4-3-3v-35.4c0-1.7,1.4-3,3-3h36.5c1.6,0,3,1.3,3,3V141.5z"/>
	<path id="f" class="st0" d="M272.4,141.5c0,1.6-1.4,3-3,3h-36.5c-1.6,0-3-1.4-3-3v-35.4c0-1.7,1.4-3,3-3h36.5c1.6,0,3,1.3,3,3V141.5z"/>
	<path id="g" class="st0" d="M317.4,141.5c0,1.6-1.4,3-3,3h-36.5c-1.6,0-3-1.4-3-3v-35.4c0-1.7,1.4-3,3-3h36.5c1.6,0,3,1.3,3,3V141.5z"/>
	<path id="h" class="st0" d="M362.4,141.5c0,1.6-1.4,3-3,3h-36.5c-1.6,0-3-1.4-3-3v-35.4c0-1.7,1.4-3,3-3h36.5c1.6,0,3,1.3,3,3V141.5z"/>
	<path id="j" class="st0" d="M407.4,141.5c0,1.6-1.4,3-3,3h-36.5c-1.6,0-3-1.4-3-3v-35.4c0-1.7,1.4-3,3-3h36.5c1.6,0,3,1.3,3,3V141.5z"/>
	<path id="k" class="st0" d="M452.4,141.5c0,1.6-1.4,3-3,3h-36.5c-1.6,0-3-1.4-3-3v-35.4c0-1.7,1.4-3,3-3h36.5c1.6,0,3,1.3,3,3V141.5z"/>
	<path id="l" class="st0" d="M497.4,141.5c0,1.6-1.4,3-3,3h-36.5c-1.6,0-3-1.4-3-3v-35.4c0-1.7,1.4-3,3-3h36.5c1.6,0,3,1.3,3,3V141.5z"/>
	<path id="semicolon" class="st0" d="M542.4,141.5c0,1.6-1.4,3-3,3h-36.5c-1.6,0-3-1.4-3-3v-35.4c0-1.7,1.4-3,3-3h36.5c1.6,0,3,1.3,3,3V141.5z"/>
	<path id="quote" class="st0" d="M587.4,141.5c0,1.6-1.4,3-3,3h-36.5c-1.7,0-3-1.4-3-3v-35.4c0-1.7,1.3-3,3-3h36.5c1.6,0,3,1.3,3,3V141.5z"/>
	<path id="w" class="st0" d="M171.7,97.6c0,1.6-1.3,3-3,3h-36.5c-1.6,0-3-1.4-3-3V62.3c0-1.6,1.4-3,3-3h36.5c1.7,0,3,1.4,3,3V97.6z"/>
	<path id="e" class="st0" d="M216.7,97.6c0,1.6-1.3,3-3,3h-36.5c-1.6,0-3-1.4-3-3V62.3c0-1.7,1.4-3,3-3h36.5c1.7,0,3,1.3,3,3V97.6z"/>
	<path id="r" class="st0" d="M261.7,97.6c0,1.6-1.4,3-3,3h-36.5c-1.6,0-3-1.4-3-3V62.3c0-1.6,1.4-3,3-3h36.5c1.6,0,3,1.4,3,3V97.6z"/>
	<path id="t" class="st0" d="M306.7,97.6c0,1.6-1.4,3-3,3h-36.5c-1.6,0-3-1.4-3-3V62.3c0-1.6,1.4-3,3-3h36.5c1.6,0,3,1.4,3,3V97.6z"/>
	<path id="y" class="st0" d="M351.7,97.6c0,1.6-1.4,3-3,3h-36.5c-1.6,0-3-1.4-3-3V62.3c0-1.6,1.4-3,3-3h36.5c1.6,0,3,1.4,3,3V97.6z"/>
	<path id="u" class="st0" d="M396.7,97.6c0,1.6-1.4,3-3,3h-36.5c-1.6,0-3-1.4-3-3V62.3c0-1.6,1.4-3,3-3h36.5c1.6,0,3,1.4,3,3V97.6z"/>
	<path id="i" class="st0" d="M441.7,97.6c0,1.6-1.4,3-3,3h-36.5c-1.6,0-3-1.4-3-3V62.3c0-1.6,1.4-3,3-3h36.5c1.6,0,3,1.4,3,3V97.6z"/>
	<path id="o" class="st0" d="M486.7,97.6c0,1.6-1.4,3-3,3h-36.5c-1.6,0-3-1.4-3-3V62.3c0-1.6,1.4-3,3-3h36.5c1.6,0,3,1.4,3,3V97.6z"/>
	<path id="p" class="st0" d="M531.7,97.6c0,1.6-1.3,3-3,3h-36.5c-1.6,0-3-1.4-3-3V62.3c0-1.6,1.4-3,3-3h36.5c1.7,0,3,1.4,3,3V97.6z"/>
	<path id="open-bracket" class="st0" d="M576.7,97.6c0,1.6-1.3,3-3,3h-36.5c-1.6,0-3-1.4-3-3V62.3c0-1.6,1.4-3,3-3h36.5c1.7,0,3,1.4,3,3V97.6z"/>
	<path id="close-bracket" class="st0" d="M621.7,97.6c0,1.6-1.3,3-3,3h-36.5c-1.6,0-3-1.4-3-3V62.3c0-1.6,1.4-3,3-3h36.5c1.7,0,3,1.4,3,3V97.6z"/>
	<path id="backslash" class="st0" d="M668.8,97.6c0,1.6-1.3,3-3,3h-38.6c-1.6,0-3-1.4-3-3V62.4c0-1.6,1.4-3,3-3h38.6c1.7,0,3,1.4,3,3V97.6z"/>
	<path id="key-2" class="st0" d="M148.4,53.7c0,1.7-1.4,3-3,3h-36.5c-1.6,0-3-1.3-3-3V18.3c0-1.6,1.4-3,3-3h36.5c1.6,0,3,1.4,3,3V53.7z"/>
	<path id="key-3" class="st0" d="M193.4,53.7c0,1.7-1.4,3-3,3h-36.5c-1.7,0-3-1.3-3-3V18.3c0-1.6,1.3-3,3-3h36.5c1.6,0,3,1.4,3,3V53.7z"/>
	<path id="key-4" class="st0" d="M238.4,53.7c0,1.7-1.4,3-3,3H199c-1.7,0-3-1.3-3-3V18.3c0-1.7,1.3-3,3-3h36.5c1.6,0,3,1.3,3,3V53.7z"/>
	<path id="key-5" class="st0" d="M283.4,53.7c0,1.7-1.3,3-3,3h-36.5c-1.7,0-3-1.3-3-3V18.3c0-1.7,1.3-3,3-3h36.5c1.7,0,3,1.3,3,3V53.7z"/>
	<path id="key-6" class="st0" d="M328.4,53.7c0,1.7-1.3,3-3,3h-36.5c-1.6,0-3-1.3-3-3V18.3c0-1.7,1.4-3,3-3h36.5c1.7,0,3,1.3,3,3V53.7z"/>
	<path id="key-7" class="st0" d="M373.4,53.7c0,1.7-1.3,3-3,3h-36.5c-1.6,0-3-1.3-3-3V18.3c0-1.6,1.4-3,3-3h36.5c1.7,0,3,1.4,3,3V53.7z"/>
	<path id="key-8" class="st0" d="M418.4,53.7c0,1.7-1.3,3-3,3h-36.5c-1.6,0-3-1.3-3-3V18.3c0-1.6,1.4-3,3-3h36.5c1.7,0,3,1.4,3,3V53.7z"/>
	<path id="key-9" class="st0" d="M463.4,53.7c0,1.7-1.3,3-3,3h-36.5c-1.6,0-3-1.3-3-3V18.3c0-1.6,1.4-3,3-3h36.5c1.7,0,3,1.4,3,3V53.7z"/>
	<path id="key-0" class="st0" d="M508.4,53.7c0,1.7-1.3,3-3,3h-36.5c-1.6,0-3-1.3-3-3V18.3c0-1.6,1.4-3,3-3h36.5c1.7,0,3,1.4,3,3V53.7z"/>
	<path id="minus" class="st0" d="M553.4,53.7c0,1.7-1.4,3-3,3h-36.5c-1.7,0-3-1.3-3-3V18.3c0-1.7,1.4-3,3-3h36.5c1.6,0,3,1.3,3,3V53.7z"/>
	<path id="equal" class="st0" d="M598.4,53.7c0,1.7-1.4,3-3,3h-36.5c-1.7,0-3-1.3-3-3V18.3c0-1.6,1.3-3,3-3h36.5c1.6,0,3,1.4,3,3V53.7z"/>
	<path id="backspace" class="st0" d="M668.8,53.7c0,1.7-1.3,3-3,3h-61.9c-1.7,0-3-1.3-3-3V18.3c0-1.6,1.3-3,3-3h61.9c1.7,0,3,1.4,3,3V53.7z"/>
	<path id="tab" class="st0" d="M81.7,97.6c0,1.6-1.3,3-3,3H18.9c-1.6,0-3-1.4-3-3V62.3c0-1.6,1.3-3,3-3h59.8c1.7,0,3,1.4,3,3V97.6z"/>
	<path id="capslock" class="st0" d="M92.4,141.5c0,1.6-1.3,3-3,3H18.9c-1.6,0-3-1.4-3-3v-35.4c0-1.7,1.3-3,3-3h70.4c1.7,0,3,1.3,3,3V141.5z"/>
	<path id="enter" class="st0" d="M668.8,141.5c0,1.6-1.3,3-3,3h-72.9c-1.7,0-3-1.4-3-3v-35.4c0-1.7,1.3-3,3-3h72.9c1.7,0,3,1.3,3,3V141.5z"/>
	<path id="shift-left" class="st0" d="M115.8,185.4c0,1.7-1.3,3-3,3H18.9c-1.6,0-3-1.3-3-3v-35.3c0-1.6,1.3-3,3-3h93.8c1.7,0,3,1.4,3,3V185.4z"/>
	<path id="control" class="st0 hide-on-bone" d="M105,236c0,1.6-1.3,3-3,3H18.9c-1.6,0-3-1.4-3-3v-42c0-1.7,1.3-3,3-3H102c1.7,0,3,1.3,3,3V236z"/>
	<path id="option-left" class="st0 hide-on-bone" d="M182.4,236c0,1.7-1.4,3-3,3h-68.8c-1.7,0-3-1.3-3-3v-42c0-1.7,1.3-3,3-3h68.8c1.6,0,3,1.3,3,3V236z"/>
	<path id="option-right" class="st0 hide-on-bone" d="M531.8,191c1.7,0,3,1.4,3,3v42c0,1.7-1.3,3-3,3h-62.9c-1.6,0-3-1.3-3-3v-42c0-1.6,1.4-3,3-3H531.8z"/>
	<path class="st0 hide-on-bone" d="M668.8,236.1c0,1.7-1.3,3-3,3H540.3c-1.6,0-3-1.3-3-3v-42c0-1.6,1.4-3,3-3h125.5c1.7,0,3,1.4,3,3V236.1z"/>
	<path id="space" class="st0 " d="M460.4,191c1.6,0,3,1.4,3,3v42c0,1.7-1.4,3-3,3H187.5c-1.6,0-3-1.3-3-3v-42c0-1.6,1.4-3,3-3H460.4z"/>
	<path id="shift-right" class="st0" d="M668.8,185.4c0,1.7-1.3,3-3,3h-94.5c-1.6,0-3-1.3-3-3v-35.3c0-1.6,1.4-3,3-3h94.5c1.7,0,3,1.4,3,3V185.4z"/>
</g>
<g id="letters">
	<text transform="matrix(1 0 0 1 33.4903 33.804)" class="st1 st2" dx="0" dy="0">~</text>
	<text transform="matrix(1 0 0 1 35.8009 52.6643)" class="st1 st2" dx="0" dy="0">`</text>
	<text transform="matrix(1 0 0 1 78.626 50.4071)" class="st1 st2" dx="0" dy="0">1</text>
	<text transform="matrix(1 0 0 1 123.299 51.1765)" class="st1 st2" dx="0" dy="0">2</text>
	<text transform="matrix(1 0 0 1 169.6841 51.404)" class="st1 st2" dx="0" dy="0">3</text>
	<text transform="matrix(1 0 0 1 213.0758 51.404)" class="st1 st2" dx="0" dy="0">4</text>
	<text transform="matrix(1 0 0 1 258.0724 51.404)" class="st1 st2" dx="0" dy="0">5</text>
	<text transform="matrix(1 0 0 1 303.2822 51.0891)" class="st1 st2" dx="0" dy="0">6</text>
	<text transform="matrix(1 0 0 1 349.5064 51.0891)" class="st1 st2" dx="0" dy="0">7</text>
	<text transform="matrix(1 0 0 1 393.281 51.2157)" class="st1 st2" dx="0" dy="0">8</text>
	<text transform="matrix(1 0 0 1 438.5742 51.2157)" class="st1 st2" dx="0" dy="0">9</text>
	<text transform="matrix(1 0 0 1 483.4907 51.2157)" class="st1 st2" dx="0" dy="0">0</text>
	<text transform="matrix(1 0 0 1 530.4011 50.4071)" class="st1 st2" dx="0" dy="0">-</text>
	<text transform="matrix(1 0 0 1 573.5195 51.2157)" class="st1 st2" dx="0" dy="0">=</text>
	<text transform="matrix(1 0 0 1 80.5513 31.7605)" class="st1 st2" dx="0" dy="0">!</text>
	<text transform="matrix(1 0 0 1 119.8565 30.45)" class="st1 st2" dx="0" dy="0">@</text>
	<text transform="matrix(1 0 0 1 169.6841 31.76)" class="st1 st2" dx="0" dy="0">#</text>
	<text transform="matrix(1 0 0 1 213.0758 31.2171)" class="st1 st2" dx="0" dy="0">$</text>
	<text transform="matrix(1 0 0 1 255.5748 30.8318)" class="st1 st2" dx="0" dy="0">%</text>
	<text transform="matrix(1 0 0 1 303.9556 32.4427)" class="st1 st2" dx="0" dy="0">^</text>
	<text transform="matrix(1 0 0 1 348.2554 31.76)" class="st1 st2" dx="0" dy="0">&</text>
	<text transform="matrix(1 0 0 1 394.5334 32.8236)" class="st1 st2" dx="0" dy="0">*</text>
	<text transform="matrix(1 0 0 1 440.3076 30.6435)" class="st1 st2" dx="0" dy="0">(</text>
	<text transform="matrix(1 0 0 1 485.1645 30.6435)" class="st1 st2" dx="0" dy="0">)</text>
	<text transform="matrix(1 0 0 1 528.7588 25.5423)" class="st1 st2" dx="0" dy="0">_</text>
	<text transform="matrix(1 0 0 1 573.5195 32.4422)" class="st1 st2" dx="0" dy="0">+</text>
	<text transform="matrix(1 0 0 1 100.9088 75.4743)" class="st1" dx="0" dy="0">Q</text>
	<text transform="matrix(1 0 0 1 100.9088 93.4743)" class="st1 st2 b" dx="-2.0701217651367188" dy="-6">q</text>
	<text transform="matrix(1 0 0 1 145.3644 75.4744)" class="st1" dx="0" dy="0">W</text>
	<text transform="matrix(1 0 0 1 145.3644 93.4744)" class="st1 st2 b" dx="-2.9864578247070312" dy="-6">w</text>
	<text transform="matrix(1 0 0 1 190.5943 75.4744)" class="st1" dx="0" dy="0">E</text>
	<text transform="matrix(1 0 0 1 190.5943 93.4744)" class="st1 st2 b" dx="-2.0701217651367188" dy="-6">e</text>
	<text transform="matrix(1 0 0 1 236.9933 75.4743)" class="st1" dx="0" dy="0">R</text>
	<text transform="matrix(1 0 0 1 236.9933 93.4743)" class="st1 st2 b" dx="-0.9109954833984375" dy="-6">r</text>
	<text transform="matrix(1 0 0 1 280.6080 75.4744)" class="st1" dx="0" dy="0">T</text>
	<text transform="matrix(1 0 0 1 280.6080 93.4744)" class="st1 st2 b" dx="-0.5350494384765625" dy="-6">t</text>
	<text transform="matrix(1 0 0 1 326.5138 75.4744)" class="st1" dx="0" dy="0">Y</text>
	<text transform="matrix(1 0 0 1 326.5138 93.4744)" class="st1 st2 b" dx="-1.7568511962890625" dy="-6">y</text>
	<text transform="matrix(1 0 0 1 371.1386 75.4743)" class="st1" dx="0" dy="0">U</text>
	<text transform="matrix(1 0 0 1 371.1386 93.4743)" class="st1 st2 b" dx="-2.07012939453125" dy="-6">u</text>
	<text transform="matrix(1 0 0 1 418.5557 75.4743)" class="st1" dx="0" dy="0">I</text>
	<text transform="matrix(1 0 0 1 418.5557 93.4743)" class="st1 st2 b" dx="-0.2217864990234375" dy="-6">i</text>
	<text transform="matrix(1 0 0 1 459.9639 75.4743)" class="st1" dx="0" dy="0">O</text>
	<text transform="matrix(1 0 0 1 459.9639 93.4743)" class="st1 st2 b" dx="-2.0701141357421875" dy="-6">o</text>
	<text transform="matrix(1 0 0 1 506.9335 75.4743)" class="st1" dx="0" dy="0">P</text>
	<text transform="matrix(1 0 0 1 506.9335 93.4743)" class="st1 st2 b" dx="-2.07012939453125" dy="-6">p</text>
	<text transform="matrix(1 0 0 1 112.1346 120.3303)" class="st1" dx="0" dy="0">A</text>
	<text transform="matrix(1 0 0 1 112.1346 138.3303)" class="st1 st2 b" dx="-2.0701217651367188" dy="-6">a</text>
	<text transform="matrix(1 0 0 1 156.0135 120.3303)" class="st1" dx="0" dy="0">S</text>
	<text transform="matrix(1 0 0 1 156.0135 138.3303)" class="st1 st2 b" dx="-1.7568435668945312" dy="-6">s</text>
	<text transform="matrix(1 0 0 1 201.5241 120.3303)" class="st1" dx="0" dy="0">D</text>
    <text transform="matrix(1 0 0 1 201.5241 138.3303)" class="st1 st2 b" dx="-2.0701217651367188" dy="-6">d</text>
	<text transform="matrix(1 0 0 1 247.1121 120.3303)" class="st1" dx="0" dy="0">F</text>
	<text transform="matrix(1 0 0 1 247.1121 138.3303)" class="st1 st2 b" dx="-0.7230224609375" dy="-6">f</text>
	<text transform="matrix(1 0 0 1 289.4753 120.3303)" class="st1" dx="0" dy="0">G</text>
	<text transform="matrix(1 0 0 1 289.4753 138.3303)" class="st1 st2 b" dx="-2.0701141357421875" dy="-6">g</text>
	<text transform="matrix(1 0 0 1 335.5886 120.3303)" class="st1" dx="0" dy="0">H</text>
	<text transform="matrix(1 0 0 1 335.5886 138.3303)" class="st1 st2 b" dx="-2.0701141357421875" dy="-6">h</text>
	<text transform="matrix(1 0 0 1 382.2692 120.3303)" class="st1" dx="0" dy="0">J</text>
	<text transform="matrix(1 0 0 1 382.2692 138.3303)" class="st1 st2 b" dx="-0.472412109375" dy="-6">j</text>
	<text transform="matrix(1 0 0 1 426.0182 120.3303)" class="st1" dx="0" dy="0">K</text>
	<text transform="matrix(1 0 0 1 426.0182 138.3303)" class="st1 st2 b" dx="-1.7568359375" dy="-6">k</text>
	<text transform="matrix(1 0 0 1 470.8706 120.3303)" class="st1" dx="0" dy="0">L</text>
	<text transform="matrix(1 0 0 1 470.8706 138.3303)" class="st1 st2 b" dx="-0.2217864990234375" dy="-6">l</text>
	<text transform="matrix(1 0 0 1 134.7896 163.7458)" class="st1" dx="0" dy="0">Z</text>
	<text transform="matrix(1 0 0 1 134.7896 181.7458)" class="st1 st2 b" dx="-1.7568435668945312" dy="-6">z</text>
	<text transform="matrix(1 0 0 1 179.2339 163.7458)" class="st1" dx="0" dy="0">X</text>
	<text transform="matrix(1 0 0 1 179.2339 181.7458)" class="st1 st2 b" dx="-1.7568435668945312" dy="-6">x</text>
	<text transform="matrix(1 0 0 1 222.5416 163.7458)" class="st1" dx="0" dy="0">C</text>
	<text transform="matrix(1 0 0 1 222.5416 181.7458)" class="st1 st2 b" dx="-1.7568435668945312" dy="-6">c</text>
	<text transform="matrix(1 0 0 1 269.3973 163.7458)" class="st1" dx="0" dy="0">V</text>
	<text transform="matrix(1 0 0 1 269.3973 181.7458)" class="st1 st2 b" dx="-1.7568359375" dy="-6">v</text>
	<text transform="matrix(1 0 0 1 314.0098 163.7458)" class="st1" dx="0" dy="0">B</text>
	<text transform="matrix(1 0 0 1 314.0098 181.7458)" class="st1 st2 b" dx="-2.0701141357421875" dy="-6">b</text>
	<text transform="matrix(1 0 0 1 358.4863 163.7458)" class="st1" dx="0" dy="0">N</text>
	<text transform="matrix(1 0 0 1 358.4863 181.7458)" class="st1 st2 b" dx="-2.0701141357421875" dy="-6">n</text>
	<text transform="matrix(1 0 0 1 401.6816 163.7458)" class="st1" dx="0" dy="0">M</text>
	<text transform="matrix(1 0 0 1 401.6816 181.7458)" class="st1 st2 b" dx="-3.5895233154296875" dy="-6">m</text>
	<text transform="matrix(1 0 0 1 519.074 136.7127)" class="st1 st2" dx="0" dy="0">;</text>
	<text transform="matrix(1 0 0 1 519.074 119.3763)" class="st1 st2" dx="0" dy="0">:</text>
	<text transform="matrix(1 0 0 1 451.3285 180.0409)" class="st1 st2 b2" dx="-1.2530975341796875" dy="0">,</text>
	<text transform="matrix(1 0 0 1 450.2827 164.3396)" class="st1 st2" dx="0" dy="0"></text>
	<text transform="matrix(1 0 0 1 495.9731 181.0409)" class="st1 st2 b2" dx="-1.25311279296875" dy="0">.</text>
	<text transform="matrix(1 0 0 1 494.9274 164.3396)" class="st1 st2" dx="0" dy="0"></text>
	<text transform="matrix(1 0 0 1 543.4077 181.0408)" class="st1 st2" dx="0" dy="0">/</text>
	<text transform="matrix(1 0 0 1 541.3276 163.2498)" class="st1 st2" dx="0" dy="0">?</text>
	<text transform="matrix(1 0 0 1 565.621 138.7127)" class="st1 st2" dx="0" dy="0">'</text>
	<text transform="matrix(1 0 0 1 565.621 120.3763)" class="st1 st2" dx="0" dy="0">"</text>
	<text transform="matrix(1 0 0 1 553.3923 94.426)" class="st1 st2" dx="0" dy="0">[</text>
	<text transform="matrix(1 0 0 1 552.9709 74.8769)" class="st1 st2" dx="0" dy="0">{</text>
	<text transform="matrix(1 0 0 1 598.7657 94.426)" class="st1 st2" dx="0" dy="0">]</text>
	<text transform="matrix(1 0 0 1 598.3443 74.7849)" class="st1 st2" dx="0" dy="0">}</text>
	<text transform="matrix(1 0 0 1 644.3574 96.8807)" class="st1 st2" dx="0" dy="0">\</text>
	<text transform="matrix(1 0 0 1 644.4941 74.8769)" class="st1 st2" dx="0" dy="0">|</text>
	<text id="text-tab" transform="matrix(1 0 0 1 23.3467 93.2342)" class="st1 s st2">tab</text>
	<text id="text-caps-lock" transform="matrix(1 0 0 1 23.3467 137.7127)" class="st1 s st2">caps lock</text>
	<text id="text-shift-left" transform="matrix(1 0 0 1 23.3467 181.0408)" class="st1 s st2">shift</text>
	<text id="text-shift-right" transform="matrix(1 0 0 1 641.826 180.0408)" class="st1 s st2">shift</text>
	<text id="text-backspace" transform="matrix(1 0 0 1 606.4653 51.1765)" class="st1 s st2">backspace</text>
	<text id="text-enter" transform="matrix(1 0 0 1 636.3144 137.7128)" class="st1 s st2">enter</text>
	<text id="text-control" transform="matrix(1 0 0 1 23.3467 232.465)" class="st1 s st2">control </text>
	<text id="text-option-left" transform="matrix(1 0 0 1 129.2338 231.4646)" class="st1 s st2">option</text>
	<text id="text-space" transform="matrix(1 0 0 1 199.7899 232.4646)" class="st1 s st2">space</text>
	<text id="text-option-right" transform="matrix(1 0 0 1 483.8864 231.4646)" class="st1 s st2">option</text>
</g>
</svg>