<svg xmlns="http://www.w3.org/2000/svg" viewBox="0 0 480 480">
  <path d="M0 464h480v16H0zM32 448h80c4.418 0 8-3.582 8-8V296c0-4.418-3.582-8-8-8H32c-4.418 0-8 3.582-8 8v144c0 4.418 3.582 8 8 8zm8-144h64v128H40V304zM256 448h80c4.418 0 8-3.582 8-8V200c0-4.418-3.582-8-8-8h-80c-4.418 0-8 3.582-8 8v240c0 4.418 3.582 8 8 8zm8-240h64v224h-64V208zM144 448h80c4.418 0 8-3.582 8-8V104c0-4.418-3.582-8-8-8h-80c-4.418 0-8 3.582-8 8v336c0 4.418 3.582 8 8 8zm8-336h64v320h-64V112zM368 448h80c4.418 0 8-3.582 8-8V8c0-4.418-3.582-8-8-8h-80c-4.418 0-8 3.582-8 8v432c0 4.418 3.582 8 8 8zm8-432h64v416h-64V16z"/>
</svg>
