<svg xmlns="http://www.w3.org/2000/svg" viewBox="0 0 512.001 512.001">
  <path d="M61.715 238.222H19.958c-4.274 0-7.739-3.464-7.739-7.739s3.465-7.739 7.739-7.739h41.756c4.274 0 7.739 3.464 7.739 7.739s-3.464 7.739-7.738 7.739z" fill="#afafaf"/>
  <path d="M19.958 250.65c-4.274 0-7.739-3.464-7.739-7.739v-22.694c0-4.275 3.465-7.739 7.739-7.739s7.739 3.464 7.739 7.739v22.694c0 4.274-3.465 7.739-7.739 7.739z" fill="#757574"/>
  <path d="M473.358 290.635h-22.23c-7.83 0-14.2-6.37-14.2-14.2v-38.214H409.2c-4.275 0-7.739-3.464-7.739-7.739s3.464-7.739 7.739-7.739h29.007c7.83 0 14.2 6.37 14.2 14.2v38.214h20.951c4.275 0 7.739 3.464 7.739 7.739s-3.465 7.739-7.739 7.739zm-35.151-52.413h.01-.01z" fill="#afafaf"/>
  <path d="M385.23 168.556v46.75H84.799v-59.133c0-6.408 5.198-11.607 11.607-11.607h277.218c6.407.001 11.606 5.2 11.606 23.99z" fill="#757574"/>
  <path d="M371.57 258.58l-.462-7.438H266.203v7.438c-4.993 12.957-17.55 22.154-32.269 22.154s-27.277-9.197-32.269-22.154v-5.422H98.555l-.096 5.422-52.565 161.562h378.24L371.57 258.58z" fill="#e2b17d"/>
  <path d="M320.794 253.158v5.422c4.993 12.957 17.55 22.154 32.269 22.154 8.787 0 16.789-3.295 22.886-8.695l-4.379-13.46-.462-7.438H266.203v2.017h54.592zm-119.129 5.422v-5.422H98.555l-.096 5.422-52.565 161.562h119.129l47.724-146.687c-4.925-3.831-8.801-8.952-11.082-14.875z" fill="#d69c67"/>
  <path d="M413.327 215.99v28.984c0 7.219-5.847 13.066-13.066 13.066H67.606c-7.219 0-13.066-5.847-13.066-13.066V215.99c0-7.219 5.847-13.066 13.066-13.066h332.656c7.219 0 13.065 5.847 13.065 13.066z" fill="#b56c30"/>
  <path d="M400.262 235.052H67.606c-7.219 0-13.066-5.847-13.066-13.066v22.987c0 7.219 5.847 13.066 13.066 13.066h332.656c7.219 0 13.066-5.847 13.066-13.066v-22.987c-.001 7.22-5.847 13.066-13.066 13.066z" fill="#aa5f26"/>
  <path d="M98.555 382.784l7.478 1.994c-.186.698.064 1.221.306 1.536.242.316.684.692 1.405.692h254.538c.721 0 1.162-.377 1.404-.692.242-.317.494-.839.308-1.536l-19.129-71.754c-.206-.775-.911-1.316-1.713-1.316H126.875c-.802 0-1.506.541-1.712 1.316l-19.13 71.754-7.478-1.994zm-44.922 45.098v29.395c0 .284.231.515.515.515h361.733c.284 0 .515-.231.515-.515v-29.395H53.633zm82.133-232.696h196.337V58.208L284.107 7.739H139.214c-1.902 0-3.449 1.547-3.449 3.449v183.998z"/>
  <path d="M300.936 379.251H168.012c-4.274 0-7.739-3.464-7.739-7.739s3.465-7.739 7.739-7.739h132.924c4.275 0 7.739 3.464 7.739 7.739s-3.464 7.739-7.739 7.739zm-157.78 0h-7.565c-4.274 0-7.739-3.464-7.739-7.739s3.465-7.739 7.739-7.739h7.565c4.274 0 7.739 3.464 7.739 7.739s-3.465 7.739-7.739 7.739zm17.291-43.228h-7.565c-4.274 0-7.739-3.464-7.739-7.739s3.465-7.739 7.739-7.739h7.565c4.274 0 7.739 3.464 7.739 7.739s-3.465 7.739-7.739 7.739zm15.13 20.533h-7.566c-4.274 0-7.739-3.464-7.739-7.739s3.465-7.739 7.739-7.739h7.566c4.274 0 7.739 3.464 7.739 7.739s-3.465 7.739-7.739 7.739zm33.501 0h-7.565c-4.274 0-7.739-3.464-7.739-7.739s3.465-7.739 7.739-7.739h7.565c4.274 0 7.739 3.464 7.739 7.739s-3.465 7.739-7.739 7.739zm33.501 0h-7.565c-4.274 0-7.739-3.464-7.739-7.739s3.465-7.739 7.739-7.739h7.565c4.275 0 7.739 3.464 7.739 7.739s-3.464 7.739-7.739 7.739zm33.501 0h-7.565c-4.275 0-7.739-3.464-7.739-7.739s3.464-7.739 7.739-7.739h7.565c4.275 0 7.739 3.464 7.739 7.739s-3.464 7.739-7.739 7.739zm33.502 0h-7.565c-4.275 0-7.739-3.464-7.739-7.739s3.464-7.739 7.739-7.739h7.565c4.275 0 7.739 3.464 7.739 7.739s-3.464 7.739-7.739 7.739zm-117.794-20.533h-7.566c-4.274 0-7.739-3.464-7.739-7.739s3.465-7.739 7.739-7.739h7.566c4.274 0 7.739 3.464 7.739 7.739s-3.465 7.739-7.739 7.739zm31.339 0h-7.565c-4.274 0-7.739-3.464-7.739-7.739s3.465-7.739 7.739-7.739h7.565c4.274 0 7.739 3.464 7.739 7.739s-3.465 7.739-7.739 7.739zm31.34 0h-7.565c-4.274 0-7.739-3.464-7.739-7.739s3.465-7.739 7.739-7.739h7.565c4.275 0 7.739 3.464 7.739 7.739s-3.465 7.739-7.739 7.739zm31.339 0h-7.565c-4.275 0-7.739-3.464-7.739-7.739s3.464-7.739 7.739-7.739h7.565c4.275 0 7.739 3.464 7.739 7.739s-3.464 7.739-7.739 7.739zm31.341 0h-7.565c-4.275 0-7.739-3.464-7.739-7.739s3.464-7.739 7.739-7.739h7.565c4.275 0 7.739 3.464 7.739 7.739s-3.464 7.739-7.739 7.739zm17.291 43.228h-7.565c-4.275 0-7.739-3.464-7.739-7.739s3.464-7.739 7.739-7.739h7.565c4.275 0 7.739 3.464 7.739 7.739s-3.465 7.739-7.739 7.739z"/>
  <path d="M371.473 382.783c1.61 6.041-2.94 11.964-9.186 11.964H107.743c-6.246 0-10.797-5.922-9.186-11.964l19.128-71.758c1.113-4.161 4.885-7.057 9.186-7.057h216.288c4.301 0 8.072 2.896 9.186 7.057l19.128 71.758z" fill="#b56c30"/>
  <path d="M371.473 382.783l-19.128-71.758c-1.113-4.161-4.885-7.057-9.186-7.057H126.87c-4.301 0-8.072 2.896-9.186 7.057l-1.014 3.806h207.325c4.301 0 8.072 2.897 9.186 7.057l19.128 71.758c.098.367.171.735.225 1.101h9.753c6.246-.001 10.796-5.923 9.186-11.964z" fill="#a85e27"/>
  <path d="M424.134 420.142v37.132c0 4.561-3.696 8.256-8.256 8.256H54.151c-4.561 0-8.256-3.696-8.256-8.256v-37.132h378.239z" fill="#c6854a"/>
  <path d="M164.286 457.274v-37.132H45.894v37.132c0 4.56 3.696 8.256 8.256 8.256h118.392c-4.56.001-8.256-3.695-8.256-8.256z" fill="#b27542"/>
  <path d="M499.782 277.308v11.174c0 3.479-2.82 6.301-6.301 6.301h-18.739c-3.48 0-6.301-2.82-6.301-6.301v-11.174c0-3.48 2.82-6.301 6.301-6.301h18.739c3.481.001 6.301 2.822 6.301 6.301zM140.995 465.531v14.168c0 6.495-5.274 11.769-11.769 11.769H115.61c-4.636 0-8.818 1.88-11.855 4.907-3.025 3.037-4.907 7.219-4.907 11.855 0 2.085-1.686 3.772-3.772 3.772H60.473c-2.085 0-3.772-1.686-3.772-3.772v-42.698h42.146l42.148-.001zm270.171 0v42.698c0 2.085-1.686 3.772-3.772 3.772h-34.603c-2.085 0-3.772-1.686-3.772-3.772 0-4.636-1.88-8.818-4.907-11.855-3.037-3.025-7.219-4.907-11.855-4.907H338.64c-6.495 0-11.769-5.274-11.769-11.769V465.53h58.357l25.938.001z" fill="#757574"/>
  <path d="M339.841 55.115v147.809H128.027V11.186C128.027 5.015 133.041 0 139.212 0h148.216l52.413 55.115z" fill="#dddbc7"/>
  <path d="M293.275 55.115h46.566L287.427 0l.488 49.808c.029 2.94 2.421 5.307 5.36 5.307z" fill="#bcb9a2"/>
  <path d="M300.936 379.251H168.012c-4.274 0-7.739-3.464-7.739-7.739s3.465-7.739 7.739-7.739h132.924c4.275 0 7.739 3.464 7.739 7.739s-3.464 7.739-7.739 7.739zm-157.78 0h-7.565c-4.274 0-7.739-3.464-7.739-7.739s3.465-7.739 7.739-7.739h7.565c4.274 0 7.739 3.464 7.739 7.739s-3.465 7.739-7.739 7.739zm17.291-43.228h-7.565c-4.274 0-7.739-3.464-7.739-7.739s3.465-7.739 7.739-7.739h7.565c4.274 0 7.739 3.464 7.739 7.739s-3.465 7.739-7.739 7.739zm15.13 20.533h-7.566c-4.274 0-7.739-3.464-7.739-7.739s3.465-7.739 7.739-7.739h7.566c4.274 0 7.739 3.464 7.739 7.739s-3.465 7.739-7.739 7.739zm33.501 0h-7.565c-4.274 0-7.739-3.464-7.739-7.739s3.465-7.739 7.739-7.739h7.565c4.274 0 7.739 3.464 7.739 7.739s-3.465 7.739-7.739 7.739zm33.501 0h-7.565c-4.274 0-7.739-3.464-7.739-7.739s3.465-7.739 7.739-7.739h7.565c4.275 0 7.739 3.464 7.739 7.739s-3.464 7.739-7.739 7.739zm33.501 0h-7.565c-4.275 0-7.739-3.464-7.739-7.739s3.464-7.739 7.739-7.739h7.565c4.275 0 7.739 3.464 7.739 7.739s-3.464 7.739-7.739 7.739zm33.502 0h-7.565c-4.275 0-7.739-3.464-7.739-7.739s3.464-7.739 7.739-7.739h7.565c4.275 0 7.739 3.464 7.739 7.739s-3.464 7.739-7.739 7.739zm-117.794-20.533h-7.566c-4.274 0-7.739-3.464-7.739-7.739s3.465-7.739 7.739-7.739h7.566c4.274 0 7.739 3.464 7.739 7.739s-3.465 7.739-7.739 7.739zm31.339 0h-7.565c-4.274 0-7.739-3.464-7.739-7.739s3.465-7.739 7.739-7.739h7.565c4.274 0 7.739 3.464 7.739 7.739s-3.465 7.739-7.739 7.739zm31.34 0h-7.565c-4.274 0-7.739-3.464-7.739-7.739s3.465-7.739 7.739-7.739h7.565c4.275 0 7.739 3.464 7.739 7.739s-3.465 7.739-7.739 7.739zm31.339 0h-7.565c-4.275 0-7.739-3.464-7.739-7.739s3.464-7.739 7.739-7.739h7.565c4.275 0 7.739 3.464 7.739 7.739s-3.464 7.739-7.739 7.739zm31.341 0h-7.565c-4.275 0-7.739-3.464-7.739-7.739s3.464-7.739 7.739-7.739h7.565c4.275 0 7.739 3.464 7.739 7.739s-3.464 7.739-7.739 7.739zm17.291 43.228h-7.565c-4.275 0-7.739-3.464-7.739-7.739s3.464-7.739 7.739-7.739h7.565c4.275 0 7.739 3.464 7.739 7.739s-3.465 7.739-7.739 7.739z" fill="#914a16"/>
</svg>
